<?xml version="1.0" encoding="UTF-8"?><svg id="a" xmlns="http://www.w3.org/2000/svg" xmlns:xlink="http://www.w3.org/1999/xlink" viewBox="0 0 81.87 81.87"><defs><style>.c{fill:url(#b);}.d{fill:#e30a7d;}.e{fill:#259ecc;}</style><linearGradient id="b" x1="174.32" y1="-1229.17" x2="240.43" y2="-1194.27" gradientTransform="translate(753.83 1041.42) rotate(-45)" gradientUnits="userSpaceOnUse"><stop offset=".2" stop-color="#279ecc"/><stop offset=".81" stop-color="#e4097d"/></linearGradient></defs><circle cx="40.94" cy="40.94" r="40.94"/><g><circle class="e" cx="15.74" cy="55.3" r="2.09"/><circle class="d" cx="65.84" cy="26.88" r="2.09"/><path class="c" d="M65,17.84h0c-1.09-1.09-2.85-1.09-3.93,0l-4.13,4.13-3.92,3.92c-1.09,1.09-2.85,1.09-3.93,0h0c-1.09-1.09-1.09-2.85,0-3.93l2.17-2.17c1.09-1.09,1.09-2.85,0-3.93h0c-1.09-1.09-2.85-1.09-3.93,0l-27.53,27.53c-1.09,1.09-1.09,2.85,0,3.93h0c1.09,1.09,2.85,1.09,3.93,0l3.04-3.04c1.09-1.09,2.85-1.09,3.93,0h0c1.09,1.09,1.09,2.85,0,3.93l-13.87,13.87c-1.09,1.09-1.09,2.85,0,3.93h0c1.09,1.09,2.85,1.09,3.93,0l4.66-4.66c1.09-1.09,2.85-1.09,3.93,0h0c1.09,1.09,2.85,1.09,3.93,0l4.12-4.12c1.09-1.09,2.85-1.09,3.93,0h0c1.09,1.09,2.85,1.09,3.93,0l19.57-19.57c1.09-1.09,1.09-2.85,0-3.93h0c-1.09-1.09-2.85-1.09-3.93,0l-.2,.2-2.75,2.75c-1.09,1.09-2.85,1.09-3.93,0h0c-1.09-1.09-1.09-2.85,0-3.93l3.42-3.42,7.55-7.55c1.09-1.09,1.09-2.85,0-3.93Z"/></g></svg>